<?xml version="1.0" encoding="UTF-8"?>
<svg width="236px" height="124px" viewBox="0 0 236 124" version="1.1" xmlns="http://www.w3.org/2000/svg" xmlns:xlink="http://www.w3.org/1999/xlink">
    <title>Group</title>
    <g id="Page-1" stroke="none" stroke-width="1" fill="none" fill-rule="evenodd">
        <g id="Apple-TV" transform="translate(-318.000000, -275.000000)">
            <g id="Group" transform="translate(318.000000, 275.000000)">
                <g id="1" transform="translate(25.000000, 0.000000)" fill="#5B66FB" fill-rule="nonzero">
                    <circle id="Oval" cx="89.5" cy="1.5" r="1.5"></circle>
                    <circle id="Oval" cx="89" cy="10" r="2"></circle>
                    <circle id="Oval" cx="89" cy="18" r="2"></circle>
                    <circle id="Oval" cx="89.5" cy="26.5" r="2.5"></circle>
                    <circle id="Oval" cx="89.5" cy="33.5" r="2.5"></circle>
                    <circle id="Oval" cx="89" cy="42" r="3"></circle>
                    <circle id="Oval" cx="89" cy="50" r="3"></circle>
                    <circle id="Oval" cx="81.5" cy="1.5" r="1.5"></circle>
                    <circle id="Oval" cx="81" cy="10" r="2"></circle>
                    <circle id="Oval" cx="81" cy="18" r="2"></circle>
                    <circle id="Oval" cx="81.5" cy="26.5" r="2.5"></circle>
                    <circle id="Oval" cx="81.5" cy="33.5" r="2.5"></circle>
                    <circle id="Oval" cx="81" cy="42" r="3"></circle>
                    <circle id="Oval" cx="81.5" cy="122.5" r="1.5"></circle>
                    <circle id="Oval" cx="81" cy="114" r="2"></circle>
                    <circle id="Oval" cx="81" cy="106" r="2"></circle>
                    <circle id="Oval" cx="81.5" cy="98.5" r="2.5"></circle>
                    <circle id="Oval" cx="81.5" cy="90.5" r="2.5"></circle>
                    <circle id="Oval" cx="81" cy="82" r="3"></circle>
                    <circle id="Oval" cx="89.5" cy="122.5" r="1.5"></circle>
                    <circle id="Oval" cx="89" cy="114" r="2"></circle>
                    <circle id="Oval" cx="89" cy="106" r="2"></circle>
                    <circle id="Oval" cx="89.5" cy="98.5" r="2.5"></circle>
                    <circle id="Oval" cx="89.5" cy="90.5" r="2.5"></circle>
                    <circle id="Oval" cx="89" cy="82" r="3"></circle>
                    <circle id="Oval" cx="81" cy="50" r="3"></circle>
                    <circle id="Oval" cx="89" cy="58" r="3"></circle>
                    <circle id="Oval" cx="81" cy="58" r="3"></circle>
                    <circle id="Oval" cx="89" cy="65" r="3"></circle>
                    <circle id="Oval" cx="81" cy="65" r="3"></circle>
                    <circle id="Oval" cx="89" cy="73" r="3"></circle>
                    <circle id="Oval" cx="96.5" cy="1.5" r="1.5"></circle>
                    <circle id="Oval" cx="97" cy="10" r="2"></circle>
                    <circle id="Oval" cx="97" cy="18" r="2"></circle>
                    <circle id="Oval" cx="96.5" cy="26.5" r="2.5"></circle>
                    <circle id="Oval" cx="96.5" cy="33.5" r="2.5"></circle>
                    <circle id="Oval" cx="97" cy="42" r="3"></circle>
                    <circle id="Oval" cx="97" cy="50" r="3"></circle>
                    <circle id="Oval" cx="96.5" cy="122.5" r="1.5"></circle>
                    <circle id="Oval" cx="97" cy="114" r="2"></circle>
                    <circle id="Oval" cx="97" cy="106" r="2"></circle>
                    <circle id="Oval" cx="96.5" cy="98.5" r="2.5"></circle>
                    <circle id="Oval" cx="96.5" cy="90.5" r="2.5"></circle>
                    <circle id="Oval" cx="97" cy="82" r="3"></circle>
                    <circle id="Oval" cx="97" cy="58" r="3"></circle>
                    <circle id="Oval" cx="97" cy="65" r="3"></circle>
                    <circle id="Oval" cx="97" cy="73" r="3"></circle>
                    <circle id="Oval" cx="105" cy="114" r="2"></circle>
                    <circle id="Oval" cx="105" cy="106" r="2"></circle>
                    <circle id="Oval" cx="105.5" cy="98.5" r="2.5"></circle>
                    <circle id="Oval" cx="105.5" cy="90.5" r="2.5"></circle>
                    <circle id="Oval" cx="113.5" cy="57.5" r="2.5"></circle>
                    <circle id="Oval" cx="121.5" cy="57.5" r="2.5"></circle>
                    <circle id="Oval" cx="129" cy="58" r="2"></circle>
                    <circle id="Oval" cx="137" cy="58" r="2"></circle>
                    <circle id="Oval" cx="145" cy="58" r="2"></circle>
                    <circle id="Oval" cx="153.5" cy="57.5" r="1.5"></circle>
                    <circle id="Oval" cx="161.5" cy="57.5" r="1.5"></circle>
                    <circle id="Oval" cx="169" cy="58" r="1"></circle>
                    <circle id="Oval" cx="177" cy="58" r="1"></circle>
                    <circle id="Oval" cx="185" cy="58" r="1"></circle>
                    <path d="M65.4989907,63 C66.8796932,63 68,64.1158192 68,65.4979822 C68,66.8801453 66.8776746,68 65.4989907,68 C64.1203068,68 63,66.8801453 63,65.4979822 C63,64.1238902 64.1203068,63 65.4989907,63 Z" id="Path"></path>
                    <circle id="Oval" cx="57.5" cy="65.5" r="2.5"></circle>
                    <circle id="Oval" cx="49.5" cy="65.5" r="1.5"></circle>
                    <circle id="Oval" cx="41.5" cy="65.5" r="1.5"></circle>
                    <circle id="Oval" cx="33" cy="66" r="1"></circle>
                    <circle id="Oval" cx="25" cy="66" r="1"></circle>
                    <circle id="Oval" cx="17" cy="66" r="1"></circle>
                    <circle id="Oval" cx="113.5" cy="73.5" r="2.5"></circle>
                    <circle id="Oval" cx="121" cy="74" r="2"></circle>
                    <circle id="Oval" cx="129" cy="74" r="2"></circle>
                    <circle id="Oval" cx="137" cy="74" r="2"></circle>
                    <circle id="Oval" cx="145.5" cy="73.5" r="1.5"></circle>
                    <circle id="Oval" cx="153.5" cy="73.5" r="1.5"></circle>
                    <circle id="Oval" cx="161" cy="74" r="1"></circle>
                    <circle id="Oval" cx="169" cy="74" r="1"></circle>
                    <circle id="Oval" cx="177" cy="74" r="1"></circle>
                    <circle id="Oval" cx="113.5" cy="81.5" r="2.5"></circle>
                    <circle id="Oval" cx="121" cy="81" r="2"></circle>
                    <circle id="Oval" cx="129" cy="81" r="2"></circle>
                    <path d="M139,81.002331 C139,82.1048951 138.104895,83 136.997669,83 C135.892774,83 135,82.1025641 135,81.002331 C135,79.8904429 135.895105,79 136.997669,79 C138.104895,79 139,79.8927739 139,81.002331 Z" id="Path"></path>
                    <circle id="Oval" cx="145.5" cy="81.5" r="1.5"></circle>
                    <circle id="Oval" cx="153.5" cy="81.5" r="1.5"></circle>
                    <circle id="Oval" cx="161" cy="81" r="1"></circle>
                    <circle id="Oval" cx="169" cy="81" r="1"></circle>
                    <circle id="Oval" cx="177" cy="81" r="1"></circle>
                    <circle id="Oval" cx="113.5" cy="90.5" r="1.5"></circle>
                    <circle id="Oval" cx="121" cy="90" r="1"></circle>
                    <circle id="Oval" cx="129" cy="90" r="1"></circle>
                    <circle id="Oval" cx="137" cy="90" r="1"></circle>
                    <circle id="Oval" cx="113.5" cy="98.5" r="1.5"></circle>
                    <circle id="Oval" cx="121" cy="98" r="1"></circle>
                    <circle id="Oval" cx="129" cy="98" r="1"></circle>
                    <circle id="Oval" cx="137" cy="98" r="1"></circle>
                    <circle id="Oval" cx="113.5" cy="106.5" r="1.5"></circle>
                    <circle id="Oval" cx="121" cy="106" r="1"></circle>
                    <circle id="Oval" cx="129" cy="106" r="1"></circle>
                    <circle id="Oval" cx="137" cy="106" r="1"></circle>
                    <path d="M115,114.495509 C115,115.324102 114.326851,116 113.498878,116 C112.670905,116 112,115.324102 112,114.495509 C112,113.671407 112.670905,113 113.498878,113 C114.326851,113 115,113.671407 115,114.495509 Z" id="Path"></path>
                    <path d="M122,113.994764 C122,114.549738 121.554585,115 121.000873,115 C120.448908,115 120,114.549738 120,113.994764 C120,113.446771 120.448908,113 121.000873,113 C121.556332,113 122,113.445026 122,113.994764 Z" id="Path"></path>
                    <path d="M129.955,113.997 C129.955,114.525 129.531,114.957 128.999,114.957 C128.473,114.957 128.045,114.523 128.045,113.997 C128.045,113.473 128.473,113.043 128.999,113.043 C129.531,113.043 129.955,113.473 129.955,113.997 Z" id="Path"></path>
                    <circle id="Oval" cx="73.5" cy="122.5" r="1.5"></circle>
                    <circle id="Oval" cx="65" cy="122" r="1"></circle>
                    <circle id="Oval" cx="57" cy="122" r="1"></circle>
                    <circle id="Oval" cx="49" cy="122" r="1"></circle>
                    <circle id="Oval" cx="113.5" cy="65.5" r="2.5"></circle>
                    <circle id="Oval" cx="121.5" cy="65.5" r="2.5"></circle>
                    <circle id="Oval" cx="129" cy="65" r="2"></circle>
                    <circle id="Oval" cx="137" cy="65" r="2"></circle>
                    <circle id="Oval" cx="145" cy="65" r="2"></circle>
                    <circle id="Oval" cx="153.5" cy="65.5" r="1.5"></circle>
                    <circle id="Oval" cx="161.5" cy="65.5" r="1.5"></circle>
                    <circle id="Oval" cx="169" cy="65" r="1"></circle>
                    <circle id="Oval" cx="177" cy="65" r="1"></circle>
                    <circle id="Oval" cx="105" cy="82" r="3"></circle>
                    <circle id="Oval" cx="105" cy="58" r="3"></circle>
                    <circle id="Oval" cx="113.5" cy="50.5" r="2.5"></circle>
                    <circle id="Oval" cx="121.5" cy="50.5" r="2.5"></circle>
                    <circle id="Oval" cx="129" cy="50" r="2"></circle>
                    <circle id="Oval" cx="137" cy="50" r="2"></circle>
                    <circle id="Oval" cx="145" cy="50" r="2"></circle>
                    <circle id="Oval" cx="153.5" cy="50.5" r="1.5"></circle>
                    <path d="M163,50.4977578 C163,51.3251121 162.328593,52 161.502246,52 C160.673653,52 160,51.3251121 160,50.4977578 C160,49.6748879 160.673653,49 161.502246,49 C162.328593,49 163,49.6748879 163,50.4977578 Z" id="Path"></path>
                    <circle id="Oval" cx="169" cy="50" r="1"></circle>
                    <circle id="Oval" cx="177" cy="50" r="1"></circle>
                    <circle id="Oval" cx="185" cy="50" r="1"></circle>
                    <circle id="Oval" cx="65" cy="50" r="2"></circle>
                    <circle id="Oval" cx="57" cy="50" r="2"></circle>
                    <circle id="Oval" cx="49.5" cy="49.5" r="1.5"></circle>
                    <circle id="Oval" cx="41.5" cy="49.5" r="1.5"></circle>
                    <circle id="Oval" cx="33" cy="50" r="1"></circle>
                    <circle id="Oval" cx="25" cy="50" r="1"></circle>
                    <circle id="Oval" cx="17" cy="50" r="1"></circle>
                    <circle id="Oval" cx="65" cy="18" r="1"></circle>
                    <circle id="Oval" cx="57" cy="18" r="1"></circle>
                    <circle id="Oval" cx="49" cy="18" r="1"></circle>
                    <circle id="Oval" cx="65.5" cy="25.5" r="1.5"></circle>
                    <circle id="Oval" cx="57" cy="26" r="1"></circle>
                    <circle id="Oval" cx="49" cy="26" r="1"></circle>
                    <circle id="Oval" cx="65" cy="10" r="1"></circle>
                    <path d="M105.503028,45 C104.118288,45 103,43.8801453 103,42.4979822 C103,41.1218725 104.120307,40 105.503028,40 C106.881712,40 108,41.1238902 108,42.4979822 C108,43.882163 106.879693,45 105.503028,45 Z" id="Path"></path>
                    <circle id="Oval" cx="113.5" cy="42.5" r="2.5"></circle>
                    <circle id="Oval" cx="121" cy="42" r="2"></circle>
                    <circle id="Oval" cx="105.5" cy="33.5" r="2.5"></circle>
                    <circle id="Oval" cx="113.5" cy="33.5" r="2.5"></circle>
                    <circle id="Oval" cx="121" cy="34" r="2"></circle>
                    <circle id="Oval" cx="129" cy="42" r="2"></circle>
                    <path d="M139,41.9976744 C139,43.0976744 138.104895,44 136.997669,44 C135.892774,44 135,43.0953488 135,41.9976744 C135,40.9 135.895105,40 136.997669,40 C138.104895,40 139,40.9 139,41.9976744 Z" id="Path"></path>
                    <circle id="Oval" cx="105" cy="26" r="2"></circle>
                    <circle id="Oval" cx="113" cy="26" r="2"></circle>
                    <circle id="Oval" cx="121" cy="26" r="2"></circle>
                    <circle id="Oval" cx="145.5" cy="42.5" r="1.5"></circle>
                    <circle id="Oval" cx="153.5" cy="42.5" r="1.5"></circle>
                    <circle id="Oval" cx="129.5" cy="33.5" r="1.5"></circle>
                    <circle id="Oval" cx="161" cy="42" r="1"></circle>
                    <circle id="Oval" cx="137" cy="34" r="1"></circle>
                    <circle id="Oval" cx="169" cy="42" r="1"></circle>
                    <circle id="Oval" cx="177" cy="42" r="1"></circle>
                    <circle id="Oval" cx="145" cy="34" r="1"></circle>
                    <circle id="Oval" cx="64.5" cy="33.5" r="2.5"></circle>
                    <circle id="Oval" cx="57" cy="34" r="2"></circle>
                    <circle id="Oval" cx="48.5" cy="33.5" r="1.5"></circle>
                    <circle id="Oval" cx="41" cy="34" r="1"></circle>
                    <circle id="Oval" cx="33" cy="34" r="1"></circle>
                    <circle id="Oval" cx="64.5" cy="42.5" r="2.5"></circle>
                    <circle id="Oval" cx="57" cy="42" r="2"></circle>
                    <circle id="Oval" cx="48.5" cy="42.5" r="1.5"></circle>
                    <circle id="Oval" cx="41" cy="42" r="1"></circle>
                    <circle id="Oval" cx="33" cy="42" r="1"></circle>
                    <circle id="Oval" cx="105" cy="18" r="2"></circle>
                    <path d="M115,17.4977578 C115,18.3251121 114.326851,19 113.498878,19 C112.670905,19 112,18.3251121 112,17.4977578 C112,16.6748879 112.670905,16 113.498878,16 C114.326851,16 115,16.6726457 115,17.4977578 Z" id="Path"></path>
                    <circle id="Oval" cx="121" cy="18" r="1"></circle>
                    <circle id="Oval" cx="129" cy="18" r="1"></circle>
                    <circle id="Oval" cx="105" cy="10" r="1"></circle>
                    <circle id="Oval" cx="113" cy="10" r="1"></circle>
                    <circle id="Oval" cx="105" cy="50" r="3"></circle>
                    <circle id="Oval" cx="105" cy="65" r="3"></circle>
                    <circle id="Oval" cx="105" cy="73" r="3"></circle>
                    <circle id="Oval" cx="81" cy="73" r="3"></circle>
                    <circle id="Oval" cx="73" cy="10" r="2"></circle>
                    <circle id="Oval" cx="73" cy="18" r="2"></circle>
                    <circle id="Oval" cx="65" cy="114" r="1"></circle>
                    <circle id="Oval" cx="57" cy="114" r="1"></circle>
                    <circle id="Oval" cx="49" cy="114" r="1"></circle>
                    <circle id="Oval" cx="73" cy="114" r="2"></circle>
                    <circle id="Oval" cx="73.5" cy="26.5" r="2.5"></circle>
                    <circle id="Oval" cx="73.5" cy="33.5" r="2.5"></circle>
                    <path d="M62,105.496722 C62,104.12276 63.1183923,103 64.4967235,103 C65.8794233,103 67,104.12276 67,105.496722 C67,106.88379 65.8794233,108 64.4967235,108 C63.1183923,108.002181 62,106.88379 62,105.496722 Z" id="Path"></path>
                    <path d="M55,104.994286 C55,103.897143 55.8960915,103 57,103 C58.1058151,103 59,103.897143 59,104.994286 C59,106.106667 58.1058151,107 57,107 C55.8960915,107 55,106.106667 55,104.994286 Z" id="Path"></path>
                    <path d="M47,105.495509 C47,104.675898 47.6758982,104 48.5022455,104 C49.3308383,104 50,104.675898 50,105.495509 C50,106.328593 49.3308383,107 48.5022455,107 C47.6758982,107 47,106.328593 47,105.495509 Z" id="Path"></path>
                    <path d="M40,104.996503 C40,104.447552 40.4489083,104 41.0008734,104 C41.5528384,104 42,104.447552 42,104.996503 C42,105.552448 41.5528384,106 41.0008734,106 C40.4489083,106 40,105.552448 40,104.996503 Z" id="Path"></path>
                    <path d="M32.999,104.234 C33.423,104.234 33.767,104.574 33.767,104.996 C33.767,105.426 33.423,105.766 32.999,105.766 C32.579,105.766 32.233,105.426 32.233,104.996 C32.233,104.574 32.579,104.234 32.999,104.234 Z" id="Path"></path>
                    <path d="M73.5020164,103 C72.1158186,103 71,104.116721 71,105.495961 C71,106.885299 72.1178364,108 73.5020164,108 C74.8821609,108 76,106.883279 76,105.495961 C76.002015,104.116721 74.8821609,103 73.5020164,103 Z" id="Path"></path>
                    <circle id="Oval" cx="73" cy="42" r="3"></circle>
                    <circle id="Oval" cx="64.5" cy="57.5" r="2.5"></circle>
                    <circle id="Oval" cx="57" cy="58" r="2"></circle>
                    <circle id="Oval" cx="48.5" cy="57.5" r="1.5"></circle>
                    <circle id="Oval" cx="41" cy="58" r="1"></circle>
                    <circle id="Oval" cx="33" cy="58" r="1"></circle>
                    <path d="M73.0011044,55 C71.3402132,55 70,56.3463522 70,58.0044215 C70,59.6536478 71.3402132,61 73.0011044,61 C74.655361,61 76,59.6536478 76,58.0044215 C76.0022089,56.348563 74.655361,55 73.0011044,55 Z" id="Path"></path>
                    <circle id="Oval" cx="73" cy="50" r="3"></circle>
                    <circle id="Oval" cx="73" cy="66" r="3"></circle>
                    <circle id="Oval" cx="65.5" cy="73.5" r="2.5"></circle>
                    <circle id="Oval" cx="57.5" cy="73.5" r="2.5"></circle>
                    <circle id="Oval" cx="49.5" cy="73.5" r="1.5"></circle>
                    <circle id="Oval" cx="41.5" cy="73.5" r="1.5"></circle>
                    <circle id="Oval" cx="33" cy="74" r="1"></circle>
                    <circle id="Oval" cx="25" cy="74" r="1"></circle>
                    <circle id="Oval" cx="17" cy="74" r="1"></circle>
                    <circle id="Oval" cx="9.5" cy="73.5" r="1"></circle>
                    <circle id="Oval" cx="0.5" cy="73.5" r="1"></circle>
                    <circle id="Oval" cx="73" cy="74" r="3"></circle>
                    <circle id="Oval" cx="65.5" cy="81.5" r="2.5"></circle>
                    <circle id="Oval" cx="57.5" cy="81.5" r="2.5"></circle>
                    <path d="M48,81.4980341 C48,80.6684142 48.6734293,80 49.5039267,80 C50.328534,80 51,80.6684142 51,81.4980341 C51,82.3315858 50.328534,83 49.5039267,83 C48.6734293,83 48,82.3315858 48,81.4980341 Z" id="Path"></path>
                    <path d="M40,81.504491 C40,80.6758982 40.670905,80 41.4988781,80 C42.3268512,80 43,80.6714072 43,81.504491 C42.9977562,82.3285928 42.3268512,83 41.4988781,83 C40.670905,83 40,82.3308383 40,81.504491 Z" id="Path"></path>
                    <circle id="Oval" cx="33" cy="82" r="1"></circle>
                    <circle id="Oval" cx="25" cy="82" r="1"></circle>
                    <circle id="Oval" cx="17" cy="82" r="1"></circle>
                    <circle id="Oval" cx="9.5" cy="81.5" r="1"></circle>
                    <circle id="Oval" cx="0.5" cy="81.5" r="1"></circle>
                    <circle id="Oval" cx="145.5" cy="90.5" r="1"></circle>
                    <circle id="Oval" cx="145.5" cy="98.5" r="1"></circle>
                    <circle id="Oval" cx="73.5" cy="89.5" r="2.5"></circle>
                    <circle id="Oval" cx="65.5" cy="89.5" r="2.5"></circle>
                    <circle id="Oval" cx="57.5" cy="89.5" r="1.5"></circle>
                    <circle id="Oval" cx="49.5" cy="89.5" r="1.5"></circle>
                    <circle id="Oval" cx="41" cy="90" r="1"></circle>
                    <circle id="Oval" cx="33" cy="90" r="1"></circle>
                    <circle id="Oval" cx="25" cy="90" r="1"></circle>
                    <circle id="Oval" cx="16.5" cy="89.5" r="1"></circle>
                    <circle id="Oval" cx="8.5" cy="89.5" r="1"></circle>
                    <circle id="Oval" cx="73.5" cy="97.5" r="2.5"></circle>
                    <circle id="Oval" cx="65.5" cy="97.5" r="2.5"></circle>
                    <circle id="Oval" cx="57.5" cy="97.5" r="1.5"></circle>
                    <circle id="Oval" cx="49.5" cy="97.5" r="1.5"></circle>
                    <circle id="Oval" cx="41" cy="98" r="1"></circle>
                    <circle id="Oval" cx="33" cy="98" r="1"></circle>
                    <circle id="Oval" cx="25" cy="98" r="1"></circle>
                    <circle id="Oval" cx="16.5" cy="97.5" r="1"></circle>
                    <circle id="Oval" cx="73" cy="82" r="3"></circle>
                </g>
                <text id="phoenix.link" font-family="HelveticaNeue-Bold, Helvetica Neue" font-size="41" font-weight="bold" fill="#FFFFFF">
                    <tspan x="0" y="78">phoenix.link</tspan>
                </text>
            </g>
        </g>
    </g>
</svg>